<svg xmlns="http://www.w3.org/2000/svg" height="24" viewBox="0 96 960 960" width="24">
    <path
        d="M480 998.61q-145.087 0-250.544-93.696-105.457-93.696-124.979-233.087-3.13-21.087 11.479-36.761 14.609-15.675 37.826-15.675 20.522 0 36.979 14.892 16.457 14.891 21.283 37.544 17.391 95.086 92.283 157.934Q379.218 892.609 480 892.609q114.174 0 193.695-79.805Q753.217 733 753.217 618.826t-79.804-193.695q-79.804-79.522-193.978-79.522h-6.565l27.086 27.087q13.261 13.261 12.978 31.391-.282 18.131-12.978 30.826-13.13 13.131-31.826 13.414-18.696.282-31.392-12.848L330.477 329.652q-7.695-7.695-11.326-17.239-3.63-9.543-3.63-19.804t3.63-19.805q3.631-9.544 11.326-17.239l105.696-105.696q12.696-12.696 31.957-12.978 19.261-.283 32.391 12.978 12.696 13.13 12.413 31.826-.282 18.696-12.978 31.392l-26.521 26.521h6q78.956 0 148.131 29.913 69.174 29.913 120.783 81.239 51.608 51.327 81.521 120.218 29.914 68.892 29.914 147.848 0 78.957-29.914 148.131-29.913 69.174-81.239 120.5-51.326 51.327-120.5 81.24Q558.957 998.61 480 998.61Z" />
</svg>