<svg xmlns="http://www.w3.org/2000/svg" height="24" viewBox="0 96 960 960" width="24">
    <path
        d="M480 296q17 0 28.5-11.5T520 256q0-17-11.5-28.5T480 216q-17 0-28.5 11.5T440 256q0 17 11.5 28.5T480 296ZM206.783 956.914q-43.726 0-74.863-31.138-31.138-31.138-31.138-74.863V304.479q0-43.726 31.138-74.864 31.137-31.138 74.863-31.138h145.521q14.391-36.695 49.938-59.761 35.546-23.065 77.758-23.065 42.826 0 78.283 23.065 35.457 23.066 50.413 59.761h144.521q43.726 0 74.863 31.138 31.138 31.138 31.138 74.864v546.434q0 43.725-31.138 74.863-31.137 31.138-74.863 31.138H206.783Zm0-106.001h546.434V304.479h-76.043v34.347q0 39.783-27.457 67.24-27.457 27.457-67.24 27.457H377.523q-39.783 0-67.24-27.457-27.457-27.457-27.457-67.24v-34.347h-76.043v546.434Z" />
</svg>